PathFileType  4	(X/Y/Z) C:\Users\antoi\Documents\MyRepositories\mobilecap\ResultsAnalysis
DataRate	CameraRate	NumFrames	NumMarkers	Units	OrigDataRate	OrigDataStartFrame	OrigNumFrames
100.0	100.0	7	51	mm	100.0	166	662
Frame#	Time	r_knee			r_shank_antsup			r_ankle			r_calc			r_5meta			r_toe			L_knee			L_shank_antsup			L_ankle			L_calc			L_5meta			L_toe			r_sh2			r_sh3			r_sh4			L_sh2			L_sh3			r_thigh1			r_thigh2			r_thigh3			r_thigh4			r_thigh5			L_thigh1			L_thigh2			L_thigh3			L_thigh4			r.ASIS			r.PSIS			L.ASIS			L.PSIS			C7			R_Shoulder			L_Shoulder			R_Sternum			L_Sternum			R_humerus			R_elbow_med			R_elbow_lat			R_forearm			R_wrist_radius			R_wrist_ulna			L_humerus			L_elbow_med			L_elbow_lat			L_forearm			L_wrist_radius			L_wrist_ulna			R_HJC			L_HJC			R_HJC_reg			L_HJC_reg			
		X1	Y1	Z1	X2	Y2	Z2	X3	Y3	Z3	X4	Y4	Z4	X5	Y5	Z5	X6	Y6	Z6	X7	Y7	Z7	X8	Y8	Z8	X9	Y9	Z9	X10	Y10	Z10	X11	Y11	Z11	X12	Y12	Z12	X13	Y13	Z13	X14	Y14	Z14	X15	Y15	Z15	X16	Y16	Z16	X17	Y17	Z17	X18	Y18	Z18	X19	Y19	Z19	X20	Y20	Z20	X21	Y21	Z21	X22	Y22	Z22	X23	Y23	Z23	X24	Y24	Z24	X25	Y25	Z25	X26	Y26	Z26	X27	Y27	Z27	X28	Y28	Z28	X29	Y29	Z29	X30	Y30	Z30	X31	Y31	Z31	X32	Y32	Z32	X33	Y33	Z33	X34	Y34	Z34	X35	Y35	Z35	X36	Y36	Z36	X37	Y37	Z37	X38	Y38	Z38	X39	Y39	Z39	X40	Y40	Z40	X41	Y41	Z41	X42	Y42	Z42	X43	Y43	Z43	X44	Y44	Z44	X45	Y45	Z45	X46	Y46	Z46	X47	Y47	Z47	X48	Y48	Z48	X49	Y49	Z49	X50	Y50	Z50	X51	Y51	Z51	

166	1.65000000	-179.62825	466.74931	-413.06630	-124.93011	391.76276	-410.50045	-295.27320	96.33805	-409.57771	-365.20119	61.79038	-445.27142	-199.49702	45.56318	-362.28137	-148.14137	73.62738	-412.47513	-188.30581	461.07882	-921.59569	-144.69485	367.59767	-938.30354	-299.35952	95.96794	-898.91666	-367.91249	61.80690	-853.52714	-197.83138	41.44026	-947.84792	-153.48449	66.57666	-896.61069	-184.75768	293.47099	-389.54521	-195.82617	428.36551	-393.41117	-249.84159	329.93761	-386.70459	-227.29380	403.34600	-932.57439	-267.01365	286.58811	-934.91906	-431.71060	652.98267	-478.08442	-334.40292	603.22129	-455.26048	-345.99277	546.31818	-418.34120	-488.44521	559.03864	-451.43968	-383.27190	505.95440	-432.93786	-421.86120	603.70827	-912.90453	-293.56505	557.03752	-919.96968	-459.38175	500.12026	-870.75899	-326.43762	457.17648	-896.36034	-414.54014	661.85687	-553.97394	-577.70543	752.89688	-626.33988	-418.16661	653.18502	-801.28795	-585.58295	758.90045	-719.60309	-284.08058	1054.26549	-690.79574	-167.88550	1018.33246	-560.98673	-193.87642	1016.96778	-833.83142	-175.27803	948.49157	-671.73154	-174.15501	945.90745	-712.08204	-114.59036	971.02392	-460.90744	-55.23782	779.94387	-364.59819	-22.96546	848.35142	-335.51603	46.61830	861.48803	-458.41563	100.45095	864.71608	-568.20468	125.88995	841.23269	-565.49992	-158.50328	968.42455	-926.92412	-101.31376	751.02534	-1015.50987	-87.16205	828.20574	-1055.17553	-23.31572	853.79472	-968.08160	73.28072	873.26037	-862.72053	99.64135	863.98365	-882.02355	-508.20981	607.09282	-572.16132	-514.55391	607.37227	-778.53499	-498.82213	604.02608	-584.63484	-512.54279	614.48114	-747.06715	
167	1.66000000	-178.07082	466.87113	-413.05382	-124.03816	391.38344	-410.63369	-295.20324	96.37938	-409.57156	-365.20221	61.81630	-445.31245	-199.51289	45.64777	-362.22033	-148.10012	73.54982	-412.57734	-187.29964	461.32890	-923.15869	-144.47678	367.46108	-939.58090	-299.43104	95.82599	-899.15303	-367.92242	61.77137	-853.55496	-197.77107	41.64598	-948.57803	-153.52946	66.47061	-896.80718	-184.30039	293.45534	-389.42408	-194.89038	428.00073	-393.92948	-249.14734	330.03214	-386.87580	-226.94185	403.37752	-933.81629	-266.98870	286.81410	-935.95832	-425.99025	659.78068	-478.34310	-329.42844	607.45990	-455.08477	-342.66551	550.94641	-418.39435	-484.41724	566.65083	-452.69670	-380.76178	511.36205	-433.65951	-417.46336	609.64170	-913.13486	-290.25658	559.96235	-921.53657	-457.01445	507.21004	-870.59285	-325.37449	461.20462	-897.54863	-411.16190	670.51259	-554.12647	-574.58004	762.19184	-626.58817	-415.45105	662.19892	-801.96151	-582.53156	768.24746	-720.18615	-285.64725	1068.28283	-691.75365	-169.05889	1033.14859	-560.89393	-194.90735	1031.69869	-835.37979	-175.71351	963.90985	-672.42423	-174.46449	961.53265	-712.89100	-117.51064	982.63654	-459.68056	-64.16042	789.38693	-363.93880	-30.34529	856.77909	-333.74649	40.14382	869.42774	-456.12034	95.01938	871.93673	-566.45832	119.82872	848.38643	-562.69904	-160.94665	979.59521	-929.22864	-109.76850	760.64164	-1015.54198	-94.57791	836.80865	-1057.01586	-29.34264	862.12059	-970.46275	68.57001	880.47748	-866.05481	94.43769	870.27069	-885.36639	-505.26142	616.13083	-572.62517	-511.82955	616.54736	-778.99139	-495.94973	612.92435	-584.82887	-509.77737	623.45486	-747.59077	
168	1.67000000	-176.55759	466.98188	-413.15225	-123.20198	391.04012	-410.84874	-295.10497	96.39915	-409.58041	-365.18383	61.82675	-445.39063	-199.51835	45.79034	-362.04329	-148.04617	73.39181	-412.69852	-186.37956	461.58064	-924.40655	-144.21556	367.39133	-940.88045	-299.47897	95.72969	-899.51390	-367.93233	61.72786	-853.58796	-197.71424	41.81794	-949.30442	-153.56587	66.33549	-897.00469	-183.67519	293.35012	-389.56396	-193.88295	427.79492	-394.11740	-248.56582	329.94099	-387.04193	-226.67640	403.35270	-934.59260	-266.99908	287.03619	-936.73696	-420.02594	666.50704	-478.56685	-324.35264	611.69353	-454.83056	-339.32855	555.49459	-418.67207	-480.43883	574.42906	-453.94561	-378.18034	516.78079	-434.57950	-412.89862	615.83735	-913.45109	-286.98232	562.89239	-922.91796	-454.59597	514.36255	-870.01933	-324.29613	465.21787	-898.06892	-407.96640	679.98351	-554.24876	-571.56178	771.70472	-626.71938	-412.66599	671.81187	-802.80822	-579.65132	777.79241	-720.92053	-287.46045	1082.80004	-692.64927	-170.73201	1048.17393	-560.79202	-196.04881	1046.95756	-836.85936	-176.33011	979.99935	-673.22624	-175.01055	977.64113	-713.73454	-120.54691	994.62529	-458.71724	-73.46251	799.36075	-363.44955	-38.36103	865.71762	-332.34905	33.28671	877.60792	-453.90601	89.39744	879.58257	-564.18638	113.55904	855.52155	-559.98722	-163.44663	991.41976	-931.15860	-119.51878	770.97824	-1016.21117	-102.33738	845.81363	-1058.38628	-35.77538	870.83138	-972.54085	63.56048	888.03788	-869.02378	88.94469	876.91866	-888.51606	-502.18160	625.64138	-573.09821	-508.93823	626.10459	-779.45780	-492.96098	622.26273	-585.00003	-506.97762	632.81158	-748.22677	
169	1.68000000	-175.15849	467.15039	-413.41763	-122.51334	390.81713	-411.10556	-294.94663	96.50868	-409.57249	-365.14642	61.84424	-445.50955	-199.52743	45.90041	-361.86532	-148.00560	73.16664	-412.76246	-185.48874	461.91319	-925.43753	-144.11529	367.21620	-941.78390	-299.47166	95.75370	-900.05060	-367.93012	61.69554	-853.61194	-197.70228	41.80159	-949.63993	-153.56748	66.19323	-897.18589	-182.95867	293.20372	-389.85477	-192.88214	427.87408	-394.01311	-248.00558	329.94892	-387.10182	-226.51691	403.25232	-934.98229	-267.06228	287.08436	-937.10308	-413.77116	672.97153	-479.09832	-319.44335	616.15681	-454.60974	-335.90710	560.11109	-419.02010	-476.45997	582.36590	-455.18084	-375.47418	522.27976	-435.58370	-408.15791	621.97562	-913.97433	-283.64572	565.67747	-924.06543	-452.02430	521.68364	-869.37258	-323.21338	469.17780	-898.14189	-404.66430	689.61490	-554.99391	-568.62196	781.33500	-626.91299	-410.05350	681.51491	-803.85087	-576.92327	787.41225	-721.78789	-289.54058	1097.78829	-693.54775	-172.85508	1063.31658	-560.69164	-197.40807	1062.76397	-838.39460	-177.10572	996.69384	-673.99890	-175.83169	994.29661	-714.65498	-123.78649	1007.08687	-458.06280	-83.10197	809.97120	-363.10417	-46.94689	875.27488	-331.19260	26.17084	886.13004	-451.91956	83.46995	887.74619	-561.25517	107.08772	862.73528	-557.39744	-166.00857	1004.47485	-932.96011	-129.41357	781.79841	-1016.15503	-110.39222	855.33825	-1059.13654	-42.53625	879.86387	-974.27007	58.29409	895.86172	-871.66946	83.22210	883.94069	-891.55927	-498.98637	635.26993	-573.80070	-506.23687	635.75363	-780.14296	-489.88848	631.86737	-585.63108	-504.18628	642.33471	-749.04492	
170	1.69000000	-173.90712	467.38526	-413.79542	-122.03331	390.69721	-411.60175	-294.76211	96.74250	-409.54515	-365.11495	61.87098	-445.66077	-199.53627	45.95502	-361.82049	-147.98230	72.98169	-412.78148	-184.70678	462.34484	-926.22180	-144.28886	366.87915	-941.78756	-299.44569	95.75310	-900.39923	-367.91826	61.68022	-853.62019	-197.71541	41.70903	-949.67863	-153.55028	66.09553	-897.30030	-182.42835	293.16331	-390.15716	-192.21408	428.01002	-394.07717	-247.45936	330.06002	-387.22891	-226.47297	403.23492	-935.41506	-267.12063	287.08915	-937.32779	-407.43810	679.27773	-479.68117	-314.56508	620.62889	-454.41569	-332.50307	564.65891	-419.41908	-472.32653	590.27642	-456.47631	-372.68448	527.78991	-436.64275	-403.25174	628.00305	-914.66516	-280.25178	568.27195	-925.01050	-449.27865	529.36329	-869.00038	-322.17985	473.19172	-898.30059	-400.77453	699.48505	-556.02452	-565.76062	790.94240	-627.31307	-407.13944	691.67586	-804.93606	-574.24487	796.97847	-722.76621	-291.83725	1113.27830	-694.50718	-175.14478	1078.65696	-560.50397	-199.16814	1079.01730	-839.94053	-178.08806	1013.92100	-674.70818	-176.81089	1011.54096	-715.69163	-127.36642	1019.87597	-457.55986	-93.08057	821.17941	-362.81547	-55.66105	885.40479	-330.14250	18.99335	895.01188	-450.21301	77.36363	896.06765	-558.49425	100.50739	870.23529	-554.81720	-168.73903	1018.13262	-934.59721	-138.83478	792.78141	-1014.88983	-118.76094	865.41207	-1059.21574	-49.39997	889.23745	-975.69991	52.79424	903.94434	-874.23670	77.28919	891.24961	-894.38151	-495.25182	644.98102	-574.70768	-503.09020	645.55707	-781.02853	-486.27127	641.66900	-586.53308	-500.79948	652.00447	-749.98058	
171	1.70000000	-172.87202	467.60485	-414.26649	-121.80870	390.67008	-412.43578	-294.64951	96.93644	-409.55343	-365.10516	61.89929	-445.81276	-199.52802	46.00088	-361.87258	-147.95750	72.91540	-412.82584	-184.15733	462.79048	-926.63462	-144.54352	366.75343	-941.60491	-299.44727	95.64674	-900.43130	-367.90776	61.67673	-853.61650	-197.70926	41.63697	-949.67642	-153.54322	66.04996	-897.35209	-182.31213	293.34890	-390.53074	-192.01811	428.11848	-394.66678	-247.18671	330.33414	-387.58355	-226.60763	403.39425	-935.87398	-267.21334	287.19791	-937.48674	-401.06664	685.72081	-479.89685	-309.54061	624.90860	-454.07414	-329.17062	568.83664	-420.31645	-468.02311	597.93234	-458.05258	-369.94563	533.20388	-437.86033	-398.30411	634.06000	-915.43317	-276.93345	570.84115	-925.91688	-446.48112	537.34370	-868.73046	-321.26385	477.22774	-898.09288	-396.48745	710.22307	-556.57335	-562.97805	800.45420	-627.81710	-403.57467	702.70035	-805.98083	-571.59883	806.40943	-723.81621	-294.33213	1129.22429	-695.49038	-177.54226	1094.25573	-560.01999	-201.37776	1095.64866	-841.38906	-179.33221	1031.64158	-675.49111	-177.78260	1029.31161	-716.84817	-131.38367	1032.81248	-456.91779	-103.24086	832.88475	-362.67355	-64.27146	895.98407	-329.28663	11.82084	904.18117	-448.68518	71.15785	904.38425	-556.34867	93.73596	878.02228	-552.34703	-171.75514	1031.91051	-935.94399	-148.60808	804.12102	-1013.11899	-127.46884	875.79502	-1058.80461	-56.34155	898.90189	-976.87247	47.07773	912.32802	-876.61724	71.14363	898.85466	-897.06479	-490.84220	655.03847	-575.52839	-498.98184	655.63392	-781.83811	-481.93275	651.71371	-587.11001	-496.64022	661.87353	-750.88716	
172	1.71000000	-172.14135	467.80173	-414.89618	-121.92482	390.90831	-413.36467	-294.66250	96.98124	-409.67260	-365.10377	61.93012	-445.90724	-199.49649	46.05652	-361.92520	-147.93828	72.94022	-412.94637	-183.87321	463.20602	-926.72091	-144.78548	367.22401	-941.96192	-299.48386	95.53926	-900.38789	-367.90471	61.67524	-853.61293	-197.66798	41.59895	-949.74367	-153.55573	66.02272	-897.37638	-182.56511	293.69544	-391.11571	-192.23457	428.37644	-395.81104	-247.33285	330.73419	-388.12842	-227.00982	403.69338	-935.92908	-267.53580	287.34204	-937.26962	-394.56877	692.52473	-479.64507	-304.48637	629.30142	-453.36397	-325.70222	573.11831	-421.47631	-463.63936	605.54564	-460.04518	-367.28983	538.64760	-439.25685	-393.45038	640.11781	-916.10400	-273.82856	573.54971	-926.79981	-443.71805	545.36479	-867.93555	-320.48381	481.27079	-897.02750	-392.22686	721.83950	-556.67515	-560.28068	809.89961	-628.33613	-399.62765	714.55162	-807.03200	-569.04612	815.80902	-724.81154	-297.07208	1145.45691	-696.50188	-180.28184	1110.18472	-559.20433	-203.98448	1112.54405	-842.90299	-180.79719	1049.75001	-676.40959	-178.93182	1047.54029	-717.92971	-135.79895	1045.98009	-456.10465	-113.41399	845.03974	-362.70593	-73.00232	906.88062	-328.73193	4.55837	913.58343	-447.24289	64.75928	912.84812	-554.56160	86.63364	885.89517	-550.41026	-175.09412	1045.91410	-937.11397	-159.37770	816.14728	-1011.47783	-136.47530	886.27716	-1058.19742	-63.58373	908.76524	-977.69649	41.15547	921.00371	-878.63299	64.75161	906.72894	-899.64112	-486.05609	665.46166	-576.25537	-494.22548	666.06608	-782.56383	-477.15982	661.98889	-587.38899	-492.09590	672.05854	-751.78221	
